<svg width="2133" height="1020" xmlns="http://www.w3.org/2000/svg"><g><path d="M-16.29754981957376,-66.5581572521478L-76.50923148728907,93.69962275028229L33.45208522863686,-30.96126244403422Z" fill="#f7f1f8" stroke="#f7f1f8"></path><path d="M-16.29754981957376,-66.5581572521478L33.45208522863686,-30.96126244403422L229.24135889858007,-75.26596547104418Z" fill="#f2eff7" stroke="#f2eff7"></path><path d="M-16.29754981957376,-66.5581572521478L229.24135889858007,-75.26596547104418L865.4708846658468,-102.26027674041688Z" fill="#e4e7f2" stroke="#e4e7f2"></path><path d="M33.45208522863686,-30.96126244403422L-76.50923148728907,93.69962275028229L133.21031760424376,74.17598434723914Z" fill="#f0eef7" stroke="#f0eef7"></path><path d="M33.45208522863686,-30.96126244403422L133.21031760424376,74.17598434723914L229.24135889858007,-75.26596547104418Z" fill="#efedf6" stroke="#efedf6"></path><path d="M229.24135889858007,-75.26596547104418L133.21031760424376,74.17598434723914L168.01331070251763,111.32863380946219Z" fill="#eaebf5" stroke="#eaebf5"></path><path d="M229.24135889858007,-75.26596547104418L168.01331070251763,111.32863380946219L359.66719170100987,117.34595060348511Z" fill="#e5e8f4" stroke="#e5e8f4"></path><path d="M229.24135889858007,-75.26596547104418L359.66719170100987,117.34595060348511L427.91836766526103,-57.22426392138004Z" fill="#e5e8f3" stroke="#e5e8f3"></path><path d="M229.24135889858007,-75.26596547104418L427.91836766526103,-57.22426392138004L501.6606134176254,-73.43126968480647Z" fill="#e3e7f2" stroke="#e3e7f2"></path><path d="M229.24135889858007,-75.26596547104418L501.6606134176254,-73.43126968480647L865.4708846658468,-102.26027674041688Z" fill="#dce3f0" stroke="#dce3f0"></path><path d="M427.91836766526103,-57.22426392138004L359.66719170100987,117.34595060348511L547.1032618638128,65.46215093694627Z" fill="#dce3f1" stroke="#dce3f1"></path><path d="M427.91836766526103,-57.22426392138004L547.1032618638128,65.46215093694627L501.6606134176254,-73.43126968480647Z" fill="#dee4f0" stroke="#dee4f0"></path><path d="M501.6606134176254,-73.43126968480647L547.1032618638128,65.46215093694627L646.0078355111182,-45.45847836881876Z" fill="#dae2ef" stroke="#dae2ef"></path><path d="M501.6606134176254,-73.43126968480647L646.0078355111182,-45.45847836881876L865.4708846658468,-102.26027674041688Z" fill="#d5dfee" stroke="#d5dfee"></path><path d="M646.0078355111182,-45.45847836881876L547.1032618638128,65.46215093694627L650.6782487221062,15.003488324582577Z" fill="#d6e0ef" stroke="#d6e0ef"></path><path d="M646.0078355111182,-45.45847836881876L650.6782487221062,15.003488324582577L865.4708846658468,-102.26027674041688Z" fill="#d2deed" stroke="#d2deed"></path><path d="M865.4708846658468,-102.26027674041688L650.6782487221062,15.003488324582577L808.4075868688524,110.79033868387341Z" fill="#ccdcea" stroke="#ccdcea"></path><path d="M865.4708846658468,-102.26027674041688L808.4075868688524,110.79033868387341L974.0254077874124,28.134661875665188Z" fill="#c1d8e5" stroke="#c1d8e5"></path><path d="M865.4708846658468,-102.26027674041688L974.0254077874124,28.134661875665188L987.4725213646889,-57.560287127271295Z" fill="#bcd7e3" stroke="#bcd7e3"></path><path d="M865.4708846658468,-102.26027674041688L987.4725213646889,-57.560287127271295L1087.410424053669,-50.391380516812205Z" fill="#b9d6e1" stroke="#b9d6e1"></path><path d="M865.4708846658468,-102.26027674041688L1087.410424053669,-50.391380516812205L1423.4409151040018,-119.35294780880213Z" fill="#abd1da" stroke="#abd1da"></path><path d="M987.4725213646889,-57.560287127271295L974.0254077874124,28.134661875665188L1087.410424053669,-50.391380516812205Z" fill="#b5d5df" stroke="#b5d5df"></path><path d="M1087.410424053669,-50.391380516812205L974.0254077874124,28.134661875665188L1081.878148606047,128.996927915141Z" fill="#afd2de" stroke="#afd2de"></path><path d="M1087.410424053669,-50.391380516812205L1081.878148606047,128.996927915141L1308.0959523282945,42.26204205304384Z" fill="#a4ced8" stroke="#a4ced8"></path><path d="M1087.410424053669,-50.391380516812205L1308.0959523282945,42.26204205304384L1294.8983606602997,-53.952506929636Z" fill="#a0ced5" stroke="#a0ced5"></path><path d="M1087.410424053669,-50.391380516812205L1294.8983606602997,-53.952506929636L1423.4409151040018,-119.35294780880213Z" fill="#9dcdd3" stroke="#9dcdd3"></path><path d="M1294.8983606602997,-53.952506929636L1308.0959523282945,42.26204205304384L1406.500382674858,54.25672679208219Z" fill="#95cad0" stroke="#95cad0"></path><path d="M1294.8983606602997,-53.952506929636L1406.500382674858,54.25672679208219L1423.4409151040018,-119.35294780880213Z" fill="#92c9ce" stroke="#92c9ce"></path><path d="M1423.4409151040018,-119.35294780880213L1406.500382674858,54.25672679208219L1597.2731521446258,-117.03682869672775Z" fill="#89c6ca" stroke="#89c6ca"></path><path d="M1423.4409151040018,-119.35294780880213L1597.2731521446258,-117.03682869672775L2122.08624095656,-124.37604879029095Z" fill="#80bfbf" stroke="#80bfbf"></path><path d="M1597.2731521446258,-117.03682869672775L1406.500382674858,54.25672679208219L1611.121165305376,95.46264566481113Z" fill="#81c4c7" stroke="#81c4c7"></path><path d="M1597.2731521446258,-117.03682869672775L1611.121165305376,95.46264566481113L1719.3789509218186,-68.69881742633879Z" fill="#80c1c2" stroke="#80c1c2"></path><path d="M1597.2731521446258,-117.03682869672775L1719.3789509218186,-68.69881742633879L1822.1070830896497,-102.66818127594888Z" fill="#80bfbf" stroke="#80bfbf"></path><path d="M1597.2731521446258,-117.03682869672775L1822.1070830896497,-102.66818127594888L1990.114259943366,-117.68756987527013Z" fill="#80bcbb" stroke="#80bcbb"></path><path d="M1597.2731521446258,-117.03682869672775L1990.114259943366,-117.68756987527013L2122.08624095656,-124.37604879029095Z" fill="#80b9b6" stroke="#80b9b6"></path><path d="M1719.3789509218186,-68.69881742633879L1611.121165305376,95.46264566481113L1734.58557411097,54.57854390144348Z" fill="#7dbec0" stroke="#7dbec0"></path><path d="M1719.3789509218186,-68.69881742633879L1734.58557411097,54.57854390144348L1822.1070830896497,-102.66818127594888Z" fill="#80bdbd" stroke="#80bdbd"></path><path d="M1822.1070830896497,-102.66818127594888L1734.58557411097,54.57854390144348L1927.7106122206897,26.304018180817366Z" fill="#80bbb9" stroke="#80bbb9"></path><path d="M1822.1070830896497,-102.66818127594888L1927.7106122206897,26.304018180817366L1990.114259943366,-117.68756987527013Z" fill="#80b8b5" stroke="#80b8b5"></path><path d="M1990.114259943366,-117.68756987527013L1927.7106122206897,26.304018180817366L2017.9838674888015,23.791680838912725Z" fill="#80b6b2" stroke="#80b6b2"></path><path d="M1990.114259943366,-117.68756987527013L2017.9838674888015,23.791680838912725L2122.08624095656,-124.37604879029095Z" fill="#80b4af" stroke="#80b4af"></path><path d="M2122.08624095656,-124.37604879029095L2017.9838674888015,23.791680838912725L2205.771634876728,33.63257979042828Z" fill="#80b2ac" stroke="#80b2ac"></path><path d="M2122.08624095656,-124.37604879029095L2205.771634876728,33.63257979042828L2355.2965190727264,-55.162206748500466Z" fill="#80aea7" stroke="#80aea7"></path><path d="M2355.2965190727264,-55.162206748500466L2205.771634876728,33.63257979042828L2294.234303086996,70.93207145109773Z" fill="#7eaca4" stroke="#7eaca4"></path><path d="M2355.2965190727264,-55.162206748500466L2294.234303086996,70.93207145109773L2301.250553475693,167.93181189335883Z" fill="#7ba9a3" stroke="#7ba9a3"></path><path d="M2355.2965190727264,-55.162206748500466L2301.250553475693,167.93181189335883L2320.4777453374118,414.2799733020365Z" fill="#71a3a2" stroke="#71a3a2"></path><path d="M2355.2965190727264,-55.162206748500466L2320.4777453374118,414.2799733020365L2326.994945202023,635.4830222949386Z" fill="#649ca2" stroke="#649ca2"></path><path d="M2355.2965190727264,-55.162206748500466L2326.994945202023,635.4830222949386L2328.1902665644884,806.4543193392456Z" fill="#469295" stroke="#469295"></path><path d="M-76.50923148728907,93.69962275028229L-132.44193049147725,242.62714387848973L70.72144791483879,173.2821241300553Z" fill="#eaeaf8" stroke="#eaeaf8"></path><path d="M-76.50923148728907,93.69962275028229L70.72144791483879,173.2821241300553L133.21031760424376,74.17598434723914Z" fill="#eaebf7" stroke="#eaebf7"></path><path d="M133.21031760424376,74.17598434723914L70.72144791483879,173.2821241300553L168.01331070251763,111.32863380946219Z" fill="#e6e8f6" stroke="#e6e8f6"></path><path d="M168.01331070251763,111.32863380946219L70.72144791483879,173.2821241300553L194.972315300256,261.96881988085806Z" fill="#dfe5f6" stroke="#dfe5f6"></path><path d="M168.01331070251763,111.32863380946219L194.972315300256,261.96881988085806L359.66719170100987,117.34595060348511Z" fill="#dce3f4" stroke="#dce3f4"></path><path d="M359.66719170100987,117.34595060348511L194.972315300256,261.96881988085806L404.3265223503113,209.17530776001513Z" fill="#d6e0f3" stroke="#d6e0f3"></path><path d="M359.66719170100987,117.34595060348511L404.3265223503113,209.17530776001513L547.1032618638128,65.46215093694627Z" fill="#d5dff1" stroke="#d5dff1"></path><path d="M547.1032618638128,65.46215093694627L404.3265223503113,209.17530776001513L564.9593694973737,210.06841731257737Z" fill="#cfddf0" stroke="#cfddf0"></path><path d="M547.1032618638128,65.46215093694627L564.9593694973737,210.06841731257737L650.6782487221062,15.003488324582577Z" fill="#d1ddef" stroke="#d1ddef"></path><path d="M650.6782487221062,15.003488324582577L564.9593694973737,210.06841731257737L725.8499284274876,230.17250357195735Z" fill="#c9d9ee" stroke="#c9d9ee"></path><path d="M650.6782487221062,15.003488324582577L725.8499284274876,230.17250357195735L808.4075868688524,110.79033868387341Z" fill="#c7d9ec" stroke="#c7d9ec"></path><path d="M808.4075868688524,110.79033868387341L725.8499284274876,230.17250357195735L783.7337845098227,260.79290027730167Z" fill="#bcd3ea" stroke="#bcd3ea"></path><path d="M808.4075868688524,110.79033868387341L783.7337845098227,260.79290027730167L1000.6040356401354,226.98101774789393Z" fill="#b3d0e6" stroke="#b3d0e6"></path><path d="M808.4075868688524,110.79033868387341L1000.6040356401354,226.98101774789393L974.0254077874124,28.134661875665188Z" fill="#b4d2e3" stroke="#b4d2e3"></path><path d="M974.0254077874124,28.134661875665188L1000.6040356401354,226.98101774789393L1081.878148606047,128.996927915141Z" fill="#aacfdf" stroke="#aacfdf"></path><path d="M1081.878148606047,128.996927915141L1000.6040356401354,226.98101774789393L1077.899399092421,186.50841364637017Z" fill="#a3cbdd" stroke="#a3cbdd"></path><path d="M1081.878148606047,128.996927915141L1077.899399092421,186.50841364637017L1226.394275771454,272.03896681778133Z" fill="#9ac9da" stroke="#9ac9da"></path><path d="M1081.878148606047,128.996927915141L1226.394275771454,272.03896681778133L1308.0959523282945,42.26204205304384Z" fill="#96c8d6" stroke="#96c8d6"></path><path d="M1308.0959523282945,42.26204205304384L1226.394275771454,272.03896681778133L1392.8888369444758,166.77696942351758Z" fill="#8bc4d1" stroke="#8bc4d1"></path><path d="M1308.0959523282945,42.26204205304384L1392.8888369444758,166.77696942351758L1406.500382674858,54.25672679208219Z" fill="#8bc5cf" stroke="#8bc5cf"></path><path d="M1406.500382674858,54.25672679208219L1392.8888369444758,166.77696942351758L1611.121165305376,95.46264566481113Z" fill="#80c2ca" stroke="#80c2ca"></path><path d="M1611.121165305376,95.46264566481113L1392.8888369444758,166.77696942351758L1577.8735846560448,282.45055253617465Z" fill="#75bcc7" stroke="#75bcc7"></path><path d="M1611.121165305376,95.46264566481113L1577.8735846560448,282.45055253617465L1754.334870139137,228.72135140933096Z" fill="#6fb8c2" stroke="#6fb8c2"></path><path d="M1611.121165305376,95.46264566481113L1754.334870139137,228.72135140933096L1734.58557411097,54.57854390144348Z" fill="#75b9bf" stroke="#75b9bf"></path><path d="M1734.58557411097,54.57854390144348L1754.334870139137,228.72135140933096L1848.3165637683123,206.76689749583602Z" fill="#72b5bc" stroke="#72b5bc"></path><path d="M1734.58557411097,54.57854390144348L1848.3165637683123,206.76689749583602L1927.7106122206897,26.304018180817366Z" fill="#78b7b9" stroke="#78b7b9"></path><path d="M1927.7106122206897,26.304018180817366L1848.3165637683123,206.76689749583602L1970.93857973814,203.73611368238926Z" fill="#74b2b5" stroke="#74b2b5"></path><path d="M1927.7106122206897,26.304018180817366L1970.93857973814,203.73611368238926L2017.9838674888015,23.791680838912725Z" fill="#79b3b3" stroke="#79b3b3"></path><path d="M2017.9838674888015,23.791680838912725L1970.93857973814,203.73611368238926L2178.8879655953497,228.9658050891012Z" fill="#73adaf" stroke="#73adaf"></path><path d="M2017.9838674888015,23.791680838912725L2178.8879655953497,228.9658050891012L2205.771634876728,33.63257979042828Z" fill="#78adab" stroke="#78adab"></path><path d="M2205.771634876728,33.63257979042828L2178.8879655953497,228.9658050891012L2301.250553475693,167.93181189335883Z" fill="#74a8a7" stroke="#74a8a7"></path><path d="M2205.771634876728,33.63257979042828L2301.250553475693,167.93181189335883L2294.234303086996,70.93207145109773Z" fill="#78a9a5" stroke="#78a9a5"></path><path d="M-132.44193049147725,242.62714387848973L-126.87933479435742,807.3078886047006L-77.2524403128773,347.9589213151485Z" fill="#c1dbec" stroke="#c1dbec"></path><path d="M-132.44193049147725,242.62714387848973L-77.2524403128773,347.9589213151485L70.72144791483879,173.2821241300553Z" fill="#e3e7f8" stroke="#e3e7f8"></path><path d="M70.72144791483879,173.2821241300553L-77.2524403128773,347.9589213151485L97.16365467756987,370.258316360414Z" fill="#dbe3f7" stroke="#dbe3f7"></path><path d="M70.72144791483879,173.2821241300553L97.16365467756987,370.258316360414L194.972315300256,261.96881988085806Z" fill="#d9e2f6" stroke="#d9e2f6"></path><path d="M194.972315300256,261.96881988085806L97.16365467756987,370.258316360414L229.45553940720856,315.81870063208044Z" fill="#d3def5" stroke="#d3def5"></path><path d="M194.972315300256,261.96881988085806L229.45553940720856,315.81870063208044L404.3265223503113,209.17530776001513Z" fill="#d2def4" stroke="#d2def4"></path><path d="M404.3265223503113,209.17530776001513L229.45553940720856,315.81870063208044L409.08427965827286,378.4907917678356Z" fill="#ccdaf3" stroke="#ccdaf3"></path><path d="M404.3265223503113,209.17530776001513L409.08427965827286,378.4907917678356L483.8237544056028,369.80883557349443Z" fill="#c5d7f1" stroke="#c5d7f1"></path><path d="M404.3265223503113,209.17530776001513L483.8237544056028,369.80883557349443L564.9593694973737,210.06841731257737Z" fill="#c8d9f1" stroke="#c8d9f1"></path><path d="M564.9593694973737,210.06841731257737L483.8237544056028,369.80883557349443L710.9157255571336,372.40622794255614Z" fill="#bed3ef" stroke="#bed3ef"></path><path d="M564.9593694973737,210.06841731257737L710.9157255571336,372.40622794255614L725.8499284274876,230.17250357195735Z" fill="#bed3ee" stroke="#bed3ee"></path><path d="M725.8499284274876,230.17250357195735L710.9157255571336,372.40622794255614L783.7337845098227,260.79290027730167Z" fill="#b8d1ec" stroke="#b8d1ec"></path><path d="M783.7337845098227,260.79290027730167L710.9157255571336,372.40622794255614L840.535212289542,335.9932159166783Z" fill="#b1ceea" stroke="#b1ceea"></path><path d="M783.7337845098227,260.79290027730167L840.535212289542,335.9932159166783L1000.6040356401354,226.98101774789393Z" fill="#accde6" stroke="#accde6"></path><path d="M1000.6040356401354,226.98101774789393L840.535212289542,335.9932159166783L1021.9184028077871,417.2824981994927Z" fill="#a0c8e2" stroke="#a0c8e2"></path><path d="M1000.6040356401354,226.98101774789393L1021.9184028077871,417.2824981994927L1073.3996863570064,339.3217608332634Z" fill="#98c6de" stroke="#98c6de"></path><path d="M1000.6040356401354,226.98101774789393L1073.3996863570064,339.3217608332634L1077.899399092421,186.50841364637017Z" fill="#9dc9dd" stroke="#9dc9dd"></path><path d="M1077.899399092421,186.50841364637017L1073.3996863570064,339.3217608332634L1226.394275771454,272.03896681778133Z" fill="#94c6da" stroke="#94c6da"></path><path d="M1226.394275771454,272.03896681778133L1073.3996863570064,339.3217608332634L1257.951507428661,366.31521770730615Z" fill="#89c1d7" stroke="#89c1d7"></path><path d="M1226.394275771454,272.03896681778133L1257.951507428661,366.31521770730615L1392.8888369444758,166.77696942351758Z" fill="#84c0d2" stroke="#84c0d2"></path><path d="M1392.8888369444758,166.77696942351758L1257.951507428661,366.31521770730615L1468.133899262175,386.2677029706538Z" fill="#79bccf" stroke="#79bccf"></path><path d="M1392.8888369444758,166.77696942351758L1468.133899262175,386.2677029706538L1577.8735846560448,282.45055253617465Z" fill="#71b9ca" stroke="#71b9ca"></path><path d="M1577.8735846560448,282.45055253617465L1468.133899262175,386.2677029706538L1556.1355945654213,428.21280520409346Z" fill="#60b3c4" stroke="#60b3c4"></path><path d="M1577.8735846560448,282.45055253617465L1556.1355945654213,428.21280520409346L1724.466512342915,356.57896363176405Z" fill="#5fb2c2" stroke="#5fb2c2"></path><path d="M1577.8735846560448,282.45055253617465L1724.466512342915,356.57896363176405L1754.334870139137,228.72135140933096Z" fill="#68b2c0" stroke="#68b2c0"></path><path d="M1754.334870139137,228.72135140933096L1724.466512342915,356.57896363176405L1848.3165637683123,206.76689749583602Z" fill="#6ab1bc" stroke="#6ab1bc"></path><path d="M1848.3165637683123,206.76689749583602L1724.466512342915,356.57896363176405L1861.9668120425195,426.4119936246425Z" fill="#64adba" stroke="#64adba"></path><path d="M1848.3165637683123,206.76689749583602L1861.9668120425195,426.4119936246425L1970.93857973814,203.73611368238926Z" fill="#68acb6" stroke="#68acb6"></path><path d="M1970.93857973814,203.73611368238926L1861.9668120425195,426.4119936246425L1982.5724117271602,417.30735406279564Z" fill="#61a8b3" stroke="#61a8b3"></path><path d="M1970.93857973814,203.73611368238926L1982.5724117271602,417.30735406279564L2178.8879655953497,228.9658050891012Z" fill="#68a8af" stroke="#68a8af"></path><path d="M2178.8879655953497,228.9658050891012L1982.5724117271602,417.30735406279564L2206.912367558107,324.5771029405296Z" fill="#65a3ac" stroke="#65a3ac"></path><path d="M2178.8879655953497,228.9658050891012L2206.912367558107,324.5771029405296L2301.250553475693,167.93181189335883Z" fill="#6ca4a7" stroke="#6ca4a7"></path><path d="M2301.250553475693,167.93181189335883L2206.912367558107,324.5771029405296L2320.4777453374118,414.2799733020365Z" fill="#669fa5" stroke="#669fa5"></path><path d="M-77.2524403128773,347.9589213151485L-126.87933479435742,807.3078886047006L-20.01745093613863,581.9395778886974Z" fill="#a3d1df" stroke="#a3d1df"></path><path d="M-77.2524403128773,347.9589213151485L-20.01745093613863,581.9395778886974L23.84075738489628,516.993220411241Z" fill="#b8d7e9" stroke="#b8d7e9"></path><path d="M-77.2524403128773,347.9589213151485L23.84075738489628,516.993220411241L97.16365467756987,370.258316360414Z" fill="#c8dcf0" stroke="#c8dcf0"></path><path d="M97.16365467756987,370.258316360414L23.84075738489628,516.993220411241L191.86086237430573,487.54838042892516Z" fill="#b8d6ea" stroke="#b8d6ea"></path><path d="M97.16365467756987,370.258316360414L191.86086237430573,487.54838042892516L229.45553940720856,315.81870063208044Z" fill="#c4d9f0" stroke="#c4d9f0"></path><path d="M229.45553940720856,315.81870063208044L191.86086237430573,487.54838042892516L374.92009316571057,499.0978969819844Z" fill="#b6d3ea" stroke="#b6d3ea"></path><path d="M229.45553940720856,315.81870063208044L374.92009316571057,499.0978969819844L409.08427965827286,378.4907917678356Z" fill="#bbd4ed" stroke="#bbd4ed"></path><path d="M409.08427965827286,378.4907917678356L374.92009316571057,499.0978969819844L479.182219337672,533.3960700966418Z" fill="#a6cde4" stroke="#a6cde4"></path><path d="M409.08427965827286,378.4907917678356L479.182219337672,533.3960700966418L483.8237544056028,369.80883557349443Z" fill="#aecfe7" stroke="#aecfe7"></path><path d="M483.8237544056028,369.80883557349443L479.182219337672,533.3960700966418L710.9157255571336,372.40622794255614Z" fill="#a9cde7" stroke="#a9cde7"></path><path d="M710.9157255571336,372.40622794255614L479.182219337672,533.3960700966418L727.8375265840441,512.9993092641234Z" fill="#9ac7e0" stroke="#9ac7e0"></path><path d="M710.9157255571336,372.40622794255614L727.8375265840441,512.9993092641234L807.0791549328715,523.0403335019946Z" fill="#94c4de" stroke="#94c4de"></path><path d="M710.9157255571336,372.40622794255614L807.0791549328715,523.0403335019946L840.535212289542,335.9932159166783Z" fill="#9ec7e2" stroke="#9ec7e2"></path><path d="M840.535212289542,335.9932159166783L807.0791549328715,523.0403335019946L1021.9184028077871,417.2824981994927Z" fill="#90c3dc" stroke="#90c3dc"></path><path d="M1021.9184028077871,417.2824981994927L807.0791549328715,523.0403335019946L1032.2911414504051,522.0659994520247Z" fill="#7bbcd2" stroke="#7bbcd2"></path><path d="M1021.9184028077871,417.2824981994927L1032.2911414504051,522.0659994520247L1163.1479868013412,509.39017857424915Z" fill="#71b9cd" stroke="#71b9cd"></path><path d="M1021.9184028077871,417.2824981994927L1163.1479868013412,509.39017857424915L1073.3996863570064,339.3217608332634Z" fill="#7ebdd3" stroke="#7ebdd3"></path><path d="M1073.3996863570064,339.3217608332634L1163.1479868013412,509.39017857424915L1257.951507428661,366.31521770730615Z" fill="#7bbcd1" stroke="#7bbcd1"></path><path d="M1257.951507428661,366.31521770730615L1163.1479868013412,509.39017857424915L1272.1068660635501,558.914986141026Z" fill="#63b4c6" stroke="#63b4c6"></path><path d="M1257.951507428661,366.31521770730615L1272.1068660635501,558.914986141026L1365.969101395458,550.924684451893Z" fill="#59b1c1" stroke="#59b1c1"></path><path d="M1257.951507428661,366.31521770730615L1365.969101395458,550.924684451893L1468.133899262175,386.2677029706538Z" fill="#60b3c5" stroke="#60b3c5"></path><path d="M1468.133899262175,386.2677029706538L1365.969101395458,550.924684451893L1525.8420200832188,478.88189071789384Z" fill="#4fadbd" stroke="#4fadbd"></path><path d="M1468.133899262175,386.2677029706538L1525.8420200832188,478.88189071789384L1556.1355945654213,428.21280520409346Z" fill="#52afbe" stroke="#52afbe"></path><path d="M1556.1355945654213,428.21280520409346L1525.8420200832188,478.88189071789384L1759.6584277879447,478.2149972207844Z" fill="#46a9b6" stroke="#46a9b6"></path><path d="M1556.1355945654213,428.21280520409346L1759.6584277879447,478.2149972207844L1724.466512342915,356.57896363176405Z" fill="#50aab8" stroke="#50aab8"></path><path d="M1724.466512342915,356.57896363176405L1759.6584277879447,478.2149972207844L1861.9668120425195,426.4119936246425Z" fill="#50a7b3" stroke="#50a7b3"></path><path d="M1861.9668120425195,426.4119936246425L1759.6584277879447,478.2149972207844L1874.0025235153735,533.6053497623652Z" fill="#42a1aa" stroke="#42a1aa"></path><path d="M1861.9668120425195,426.4119936246425L1874.0025235153735,533.6053497623652L1982.5724117271602,417.30735406279564Z" fill="#47a0a9" stroke="#47a0a9"></path><path d="M1982.5724117271602,417.30735406279564L1874.0025235153735,533.6053497623652L2064.64485604316,521.9563329219818Z" fill="#3f9ba3" stroke="#3f9ba3"></path><path d="M1982.5724117271602,417.30735406279564L2064.64485604316,521.9563329219818L2120.6948876101524,497.94341454282403Z" fill="#429aa0" stroke="#429aa0"></path><path d="M1982.5724117271602,417.30735406279564L2120.6948876101524,497.94341454282403L2206.912367558107,324.5771029405296Z" fill="#529ea5" stroke="#529ea5"></path><path d="M2206.912367558107,324.5771029405296L2120.6948876101524,497.94341454282403L2320.4777453374118,414.2799733020365Z" fill="#529a9f" stroke="#529a9f"></path><path d="M2320.4777453374118,414.2799733020365L2120.6948876101524,497.94341454282403L2304.9794920999557,574.9854358937591Z" fill="#3e9395" stroke="#3e9395"></path><path d="M2320.4777453374118,414.2799733020365L2304.9794920999557,574.9854358937591L2326.994945202023,635.4830222949386Z" fill="#338d8d" stroke="#338d8d"></path><path d="M-20.01745093613863,581.9395778886974L-126.87933479435742,807.3078886047006L-23.829851858317852,673.572010025382Z" fill="#89c8d3" stroke="#89c8d3"></path><path d="M-20.01745093613863,581.9395778886974L-23.829851858317852,673.572010025382L48.08395581319928,726.0567788779736Z" fill="#8cc9d5" stroke="#8cc9d5"></path><path d="M-20.01745093613863,581.9395778886974L48.08395581319928,726.0567788779736L167.68079149536788,669.7399773169309Z" fill="#8ac7d4" stroke="#8ac7d4"></path><path d="M-20.01745093613863,581.9395778886974L167.68079149536788,669.7399773169309L23.84075738489628,516.993220411241Z" fill="#9acddc" stroke="#9acddc"></path><path d="M23.84075738489628,516.993220411241L167.68079149536788,669.7399773169309L191.86086237430573,487.54838042892516Z" fill="#9ecdde" stroke="#9ecdde"></path><path d="M191.86086237430573,487.54838042892516L167.68079149536788,669.7399773169309L368.43610111624,620.24179039523Z" fill="#91c8d9" stroke="#91c8d9"></path><path d="M191.86086237430573,487.54838042892516L368.43610111624,620.24179039523L374.92009316571057,499.0978969819844Z" fill="#9bcbde" stroke="#9bcbde"></path><path d="M374.92009316571057,499.0978969819844L368.43610111624,620.24179039523L479.182219337672,533.3960700966418Z" fill="#93c7db" stroke="#93c7db"></path><path d="M479.182219337672,533.3960700966418L368.43610111624,620.24179039523L479.16501444764435,700.7618959899992Z" fill="#81c1d3" stroke="#81c1d3"></path><path d="M479.182219337672,533.3960700966418L479.16501444764435,700.7618959899992L651.6815783735365,720.3020972851664Z" fill="#74bbce" stroke="#74bbce"></path><path d="M479.182219337672,533.3960700966418L651.6815783735365,720.3020972851664L727.8375265840441,512.9993092641234Z" fill="#7fbed4" stroke="#7fbed4"></path><path d="M727.8375265840441,512.9993092641234L651.6815783735365,720.3020972851664L847.4801745079458,718.8131247181445Z" fill="#69b6ca" stroke="#69b6ca"></path><path d="M727.8375265840441,512.9993092641234L847.4801745079458,718.8131247181445L807.0791549328715,523.0403335019946Z" fill="#74bacf" stroke="#74bacf"></path><path d="M807.0791549328715,523.0403335019946L847.4801745079458,718.8131247181445L928.1952369119972,668.5087897069752Z" fill="#61b4c6" stroke="#61b4c6"></path><path d="M807.0791549328715,523.0403335019946L928.1952369119972,668.5087897069752L1032.2911414504051,522.0659994520247Z" fill="#6ab7ca" stroke="#6ab7ca"></path><path d="M1032.2911414504051,522.0659994520247L928.1952369119972,668.5087897069752L1163.5539812687784,646.2647388875484Z" fill="#55b0c1" stroke="#55b0c1"></path><path d="M1032.2911414504051,522.0659994520247L1163.5539812687784,646.2647388875484L1163.1479868013412,509.39017857424915Z" fill="#5ab1c3" stroke="#5ab1c3"></path><path d="M1163.1479868013412,509.39017857424915L1163.5539812687784,646.2647388875484L1272.1068660635501,558.914986141026Z" fill="#4faebe" stroke="#4faebe"></path><path d="M1272.1068660635501,558.914986141026L1163.5539812687784,646.2647388875484L1319.094604421407,726.580398324877Z" fill="#39a7b4" stroke="#39a7b4"></path><path d="M1272.1068660635501,558.914986141026L1319.094604421407,726.580398324877L1365.969101395458,550.924684451893Z" fill="#3aa7b4" stroke="#3aa7b4"></path><path d="M1365.969101395458,550.924684451893L1319.094604421407,726.580398324877L1476.7154614906758,684.7584655601531Z" fill="#29a1ac" stroke="#29a1ac"></path><path d="M1365.969101395458,550.924684451893L1476.7154614906758,684.7584655601531L1525.8420200832188,478.88189071789384Z" fill="#36a6b2" stroke="#36a6b2"></path><path d="M1525.8420200832188,478.88189071789384L1476.7154614906758,684.7584655601531L1588.425640342757,734.8292012605816Z" fill="#219ea8" stroke="#219ea8"></path><path d="M1525.8420200832188,478.88189071789384L1588.425640342757,734.8292012605816L1780.3381559997797,662.1462239418179Z" fill="#1f9ca4" stroke="#1f9ca4"></path><path d="M1525.8420200832188,478.88189071789384L1780.3381559997797,662.1462239418179L1759.6584277879447,478.2149972207844Z" fill="#33a1aa" stroke="#33a1aa"></path><path d="M1759.6584277879447,478.2149972207844L1780.3381559997797,662.1462239418179L1874.0025235153735,533.6053497623652Z" fill="#2f9ca3" stroke="#2f9ca3"></path><path d="M1874.0025235153735,533.6053497623652L1780.3381559997797,662.1462239418179L1865.9459102153778,714.0716776996851Z" fill="#1c9599" stroke="#1c9599"></path><path d="M1874.0025235153735,533.6053497623652L1865.9459102153778,714.0716776996851L1984.409056166187,673.1054062955081Z" fill="#1b9296" stroke="#1b9296"></path><path d="M1874.0025235153735,533.6053497623652L1984.409056166187,673.1054062955081L2064.64485604316,521.9563329219818Z" fill="#2b9599" stroke="#2b9599"></path><path d="M2064.64485604316,521.9563329219818L1984.409056166187,673.1054062955081L2230.4893243219703,628.5640781465918Z" fill="#238f90" stroke="#238f90"></path><path d="M2064.64485604316,521.9563329219818L2230.4893243219703,628.5640781465918L2120.6948876101524,497.94341454282403Z" fill="#319294" stroke="#319294"></path><path d="M2120.6948876101524,497.94341454282403L2230.4893243219703,628.5640781465918L2304.9794920999557,574.9854358937591Z" fill="#2d8e8f" stroke="#2d8e8f"></path><path d="M2304.9794920999557,574.9854358937591L2230.4893243219703,628.5640781465918L2326.994945202023,635.4830222949386Z" fill="#228887" stroke="#228887"></path><path d="M-23.829851858317852,673.572010025382L-126.87933479435742,807.3078886047006L44.27830634638667,790.5454947520047Z" fill="#78c2cb" stroke="#78c2cb"></path><path d="M-23.829851858317852,673.572010025382L44.27830634638667,790.5454947520047L48.08395581319928,726.0567788779736Z" fill="#7bc3cd" stroke="#7bc3cd"></path><path d="M48.08395581319928,726.0567788779736L44.27830634638667,790.5454947520047L167.68079149536788,669.7399773169309Z" fill="#78c1cd" stroke="#78c1cd"></path><path d="M167.68079149536788,669.7399773169309L44.27830634638667,790.5454947520047L277.75135464034975,788.4853489045054Z" fill="#6fbec9" stroke="#6fbec9"></path><path d="M167.68079149536788,669.7399773169309L277.75135464034975,788.4853489045054L368.43610111624,620.24179039523Z" fill="#77bfce" stroke="#77bfce"></path><path d="M368.43610111624,620.24179039523L277.75135464034975,788.4853489045054L369.806559747085,828.7568646669388Z" fill="#67b9c7" stroke="#67b9c7"></path><path d="M368.43610111624,620.24179039523L369.806559747085,828.7568646669388L479.16501444764435,700.7618959899992Z" fill="#6bbac9" stroke="#6bbac9"></path><path d="M479.16501444764435,700.7618959899992L369.806559747085,828.7568646669388L524.4068045821041,802.1045599132776Z" fill="#60b4c2" stroke="#60b4c2"></path><path d="M479.16501444764435,700.7618959899992L524.4068045821041,802.1045599132776L651.6815783735365,720.3020972851664Z" fill="#5eb4c5" stroke="#5eb4c5"></path><path d="M651.6815783735365,720.3020972851664L524.4068045821041,802.1045599132776L641.9502028170973,862.8811133466661Z" fill="#58aebe" stroke="#58aebe"></path><path d="M651.6815783735365,720.3020972851664L641.9502028170973,862.8811133466661L869.457855289802,800.0091146305203Z" fill="#52abbc" stroke="#52abbc"></path><path d="M651.6815783735365,720.3020972851664L869.457855289802,800.0091146305203L847.4801745079458,718.8131247181445Z" fill="#4dadbe" stroke="#4dadbe"></path><path d="M847.4801745079458,718.8131247181445L869.457855289802,800.0091146305203L928.1952369119972,668.5087897069752Z" fill="#48abbb" stroke="#48abbb"></path><path d="M928.1952369119972,668.5087897069752L869.457855289802,800.0091146305203L924.1148739214987,859.519054312259Z" fill="#40a7b5" stroke="#40a7b5"></path><path d="M928.1952369119972,668.5087897069752L924.1148739214987,859.519054312259L1163.5539812687784,646.2647388875484Z" fill="#3ea8b6" stroke="#3ea8b6"></path><path d="M1163.5539812687784,646.2647388875484L924.1148739214987,859.519054312259L1174.0128547791392,884.7213783860207Z" fill="#2fa0ab" stroke="#2fa0ab"></path><path d="M1163.5539812687784,646.2647388875484L1174.0128547791392,884.7213783860207L1286.1878073681146,812.0288717653602Z" fill="#239da7" stroke="#239da7"></path><path d="M1163.5539812687784,646.2647388875484L1286.1878073681146,812.0288717653602L1319.094604421407,726.580398324877Z" fill="#249faa" stroke="#249faa"></path><path d="M1319.094604421407,726.580398324877L1286.1878073681146,812.0288717653602L1422.2688986174762,837.4902956094593Z" fill="#16989f" stroke="#16989f"></path><path d="M1319.094604421407,726.580398324877L1422.2688986174762,837.4902956094593L1476.7154614906758,684.7584655601531Z" fill="#1199a1" stroke="#1199a1"></path><path d="M1476.7154614906758,684.7584655601531L1422.2688986174762,837.4902956094593L1573.8676397223026,774.1764708794653Z" fill="#08969c" stroke="#08969c"></path><path d="M1476.7154614906758,684.7584655601531L1573.8676397223026,774.1764708794653L1588.425640342757,734.8292012605816Z" fill="#07969c" stroke="#07969c"></path><path d="M1588.425640342757,734.8292012605816L1573.8676397223026,774.1764708794653L1703.7739534769207,778.9674700051546Z" fill="#009195" stroke="#009195"></path><path d="M1588.425640342757,734.8292012605816L1703.7739534769207,778.9674700051546L1780.3381559997797,662.1462239418179Z" fill="#079296" stroke="#079296"></path><path d="M1780.3381559997797,662.1462239418179L1703.7739534769207,778.9674700051546L1865.9459102153778,714.0716776996851Z" fill="#099093" stroke="#099093"></path><path d="M1865.9459102153778,714.0716776996851L1703.7739534769207,778.9674700051546L1930.0131631828845,826.9532986544073Z" fill="#008a8b" stroke="#008a8b"></path><path d="M1865.9459102153778,714.0716776996851L1930.0131631828845,826.9532986544073L1984.409056166187,673.1054062955081Z" fill="#048a8a" stroke="#048a8a"></path><path d="M1984.409056166187,673.1054062955081L1930.0131631828845,826.9532986544073L2084.2151689343154,828.4216954372823Z" fill="#008482" stroke="#008482"></path><path d="M1984.409056166187,673.1054062955081L2084.2151689343154,828.4216954372823L2230.4893243219703,628.5640781465918Z" fill="#0b8685" stroke="#0b8685"></path><path d="M2230.4893243219703,628.5640781465918L2084.2151689343154,828.4216954372823L2189.393996251747,822.8004996199161Z" fill="#00817d" stroke="#00817d"></path><path d="M2230.4893243219703,628.5640781465918L2189.393996251747,822.8004996199161L2328.1902665644884,806.4543193392456Z" fill="#007f79" stroke="#007f79"></path><path d="M2230.4893243219703,628.5640781465918L2328.1902665644884,806.4543193392456L2326.994945202023,635.4830222949386Z" fill="#0f827e" stroke="#0f827e"></path><path d="M-126.87933479435742,807.3078886047006L-121.99415154755116,1105.415612384677L-82.19734758138657,979.7710521798581Z" fill="#7cb4b6" stroke="#7cb4b6"></path><path d="M-126.87933479435742,807.3078886047006L-82.19734758138657,979.7710521798581L44.27830634638667,790.5454947520047Z" fill="#79bbc1" stroke="#79bbc1"></path><path d="M44.27830634638667,790.5454947520047L-82.19734758138657,979.7710521798581L130.0597073044628,987.588544730097Z" fill="#75b4b9" stroke="#75b4b9"></path><path d="M44.27830634638667,790.5454947520047L130.0597073044628,987.588544730097L277.75135464034975,788.4853489045054Z" fill="#6fb6be" stroke="#6fb6be"></path><path d="M277.75135464034975,788.4853489045054L130.0597073044628,987.588544730097L246.76009844988585,1026.9000530708581Z" fill="#6caeb5" stroke="#6caeb5"></path><path d="M277.75135464034975,788.4853489045054L246.76009844988585,1026.9000530708581L395.7881414797157,944.6634418610483Z" fill="#67adb5" stroke="#67adb5"></path><path d="M277.75135464034975,788.4853489045054L395.7881414797157,944.6634418610483L369.806559747085,828.7568646669388Z" fill="#65b1bc" stroke="#65b1bc"></path><path d="M369.806559747085,828.7568646669388L395.7881414797157,944.6634418610483L524.4068045821041,802.1045599132776Z" fill="#61aeba" stroke="#61aeba"></path><path d="M524.4068045821041,802.1045599132776L395.7881414797157,944.6634418610483L481.0952495690435,1026.6712892521173Z" fill="#5fa8b2" stroke="#5fa8b2"></path><path d="M524.4068045821041,802.1045599132776L481.0952495690435,1026.6712892521173L641.9502028170973,862.8811133466661Z" fill="#5ba8b4" stroke="#5ba8b4"></path><path d="M641.9502028170973,862.8811133466661L481.0952495690435,1026.6712892521173L695.1222551520914,1005.5733859073371Z" fill="#58a1ac" stroke="#58a1ac"></path><path d="M641.9502028170973,862.8811133466661L695.1222551520914,1005.5733859073371L789.9637737125158,964.9241119064391Z" fill="#53a0ac" stroke="#53a0ac"></path><path d="M641.9502028170973,862.8811133466661L789.9637737125158,964.9241119064391L869.457855289802,800.0091146305203Z" fill="#4ea3b1" stroke="#4ea3b1"></path><path d="M869.457855289802,800.0091146305203L789.9637737125158,964.9241119064391L924.1148739214987,859.519054312259Z" fill="#45a1ad" stroke="#45a1ad"></path><path d="M924.1148739214987,859.519054312259L789.9637737125158,964.9241119064391L937.8414144739509,934.7688842006028Z" fill="#429da7" stroke="#429da7"></path><path d="M924.1148739214987,859.519054312259L937.8414144739509,934.7688842006028L1093.2468179706484,936.9222457520664Z" fill="#399aa4" stroke="#399aa4"></path><path d="M924.1148739214987,859.519054312259L1093.2468179706484,936.9222457520664L1174.0128547791392,884.7213783860207Z" fill="#3199a1" stroke="#3199a1"></path><path d="M1174.0128547791392,884.7213783860207L1093.2468179706484,936.9222457520664L1232.3752143513411,1012.257602987811Z" fill="#279297" stroke="#279297"></path><path d="M1174.0128547791392,884.7213783860207L1232.3752143513411,1012.257602987811L1286.1878073681146,812.0288717653602Z" fill="#219399" stroke="#219399"></path><path d="M1286.1878073681146,812.0288717653602L1232.3752143513411,1012.257602987811L1457.3156467359513,964.1186975967139Z" fill="#188e91" stroke="#188e91"></path><path d="M1286.1878073681146,812.0288717653602L1457.3156467359513,964.1186975967139L1422.2688986174762,837.4902956094593Z" fill="#119095" stroke="#119095"></path><path d="M1422.2688986174762,837.4902956094593L1457.3156467359513,964.1186975967139L1573.8676397223026,774.1764708794653Z" fill="#088e92" stroke="#088e92"></path><path d="M1573.8676397223026,774.1764708794653L1457.3156467359513,964.1186975967139L1594.7205051407218,980.6416603457183Z" fill="#03898a" stroke="#03898a"></path><path d="M1573.8676397223026,774.1764708794653L1594.7205051407218,980.6416603457183L1703.7739534769207,778.9674700051546Z" fill="#008b8d" stroke="#008b8d"></path><path d="M1703.7739534769207,778.9674700051546L1594.7205051407218,980.6416603457183L1753.9827531483024,1020.175533592701Z" fill="#008381" stroke="#008381"></path><path d="M1703.7739534769207,778.9674700051546L1753.9827531483024,1020.175533592701L1930.0131631828845,826.9532986544073Z" fill="#008381" stroke="#008381"></path><path d="M1930.0131631828845,826.9532986544073L1753.9827531483024,1020.175533592701L1883.4009719453752,1033.586330646649Z" fill="#007b76" stroke="#007b76"></path><path d="M1930.0131631828845,826.9532986544073L1883.4009719453752,1033.586330646649L2040.3703505080193,941.7544131260365Z" fill="#007a74" stroke="#007a74"></path><path d="M1930.0131631828845,826.9532986544073L2040.3703505080193,941.7544131260365L2084.2151689343154,828.4216954372823Z" fill="#007d78" stroke="#007d78"></path><path d="M2084.2151689343154,828.4216954372823L2040.3703505080193,941.7544131260365L2123.453569142148,928.5686651989818Z" fill="#007872" stroke="#007872"></path><path d="M2084.2151689343154,828.4216954372823L2123.453569142148,928.5686651989818L2189.393996251747,822.8004996199161Z" fill="#007a73" stroke="#007a73"></path><path d="M2189.393996251747,822.8004996199161L2123.453569142148,928.5686651989818L2277.5266568362713,970.8614118397236Z" fill="#00746b" stroke="#00746b"></path><path d="M2189.393996251747,822.8004996199161L2277.5266568362713,970.8614118397236L2328.1902665644884,806.4543193392456Z" fill="#00756d" stroke="#00756d"></path><path d="M2328.1902665644884,806.4543193392456L2277.5266568362713,970.8614118397236L2291.6630319412798,1179.7381618525833Z" fill="#006a5e" stroke="#006a5e"></path><path d="M-82.19734758138657,979.7710521798581L-121.99415154755116,1105.415612384677L42.63592477887869,1077.4198556039482Z" fill="#79acac" stroke="#79acac"></path><path d="M-82.19734758138657,979.7710521798581L42.63592477887869,1077.4198556039482L130.0597073044628,987.588544730097Z" fill="#75acaf" stroke="#75acaf"></path><path d="M130.0597073044628,987.588544730097L42.63592477887869,1077.4198556039482L170.71086689829826,1113.1960281170905Z" fill="#71a7a9" stroke="#71a7a9"></path><path d="M130.0597073044628,987.588544730097L170.71086689829826,1113.1960281170905L246.76009844988585,1026.9000530708581Z" fill="#6da6aa" stroke="#6da6aa"></path><path d="M246.76009844988585,1026.9000530708581L170.71086689829826,1113.1960281170905L427.3066700901836,1124.2982670105994Z" fill="#68a0a3" stroke="#68a0a3"></path><path d="M246.76009844988585,1026.9000530708581L427.3066700901836,1124.2982670105994L395.7881414797157,944.6634418610483Z" fill="#65a2a8" stroke="#65a2a8"></path><path d="M395.7881414797157,944.6634418610483L427.3066700901836,1124.2982670105994L481.0952495690435,1026.6712892521173Z" fill="#61a0a7" stroke="#61a0a7"></path><path d="M481.0952495690435,1026.6712892521173L427.3066700901836,1124.2982670105994L548.1114498898387,1145.8349511399865Z" fill="#5e9a9f" stroke="#5e9a9f"></path><path d="M481.0952495690435,1026.6712892521173L548.1114498898387,1145.8349511399865L633.1086082197726,1122.2282918728888Z" fill="#5b989e" stroke="#5b989e"></path><path d="M481.0952495690435,1026.6712892521173L633.1086082197726,1122.2282918728888L695.1222551520914,1005.5733859073371Z" fill="#599ba2" stroke="#599ba2"></path><path d="M695.1222551520914,1005.5733859073371L633.1086082197726,1122.2282918728888L813.331507416442,1147.6273599173874Z" fill="#53959d" stroke="#53959d"></path><path d="M695.1222551520914,1005.5733859073371L813.331507416442,1147.6273599173874L789.9637737125158,964.9241119064391Z" fill="#4e97a0" stroke="#4e97a0"></path><path d="M789.9637737125158,964.9241119064391L813.331507416442,1147.6273599173874L919.6369480434805,1085.8779592160136Z" fill="#479399" stroke="#479399"></path><path d="M789.9637737125158,964.9241119064391L919.6369480434805,1085.8779592160136L937.8414144739509,934.7688842006028Z" fill="#43979f" stroke="#43979f"></path><path d="M937.8414144739509,934.7688842006028L919.6369480434805,1085.8779592160136L1093.2468179706484,936.9222457520664Z" fill="#39949b" stroke="#39949b"></path><path d="M1093.2468179706484,936.9222457520664L919.6369480434805,1085.8779592160136L1084.2418246809393,1176.5477898716927Z" fill="#348d90" stroke="#348d90"></path><path d="M1093.2468179706484,936.9222457520664L1084.2418246809393,1176.5477898716927L1232.3752143513411,1012.257602987811Z" fill="#2a8b8e" stroke="#2a8b8e"></path><path d="M1232.3752143513411,1012.257602987811L1084.2418246809393,1176.5477898716927L1300.797366751358,1164.5540891960263Z" fill="#238383" stroke="#238383"></path><path d="M1232.3752143513411,1012.257602987811L1300.797366751358,1164.5540891960263L1433.807177497074,1136.4263376686722Z" fill="#18807f" stroke="#18807f"></path><path d="M1232.3752143513411,1012.257602987811L1433.807177497074,1136.4263376686722L1457.3156467359513,964.1186975967139Z" fill="#138483" stroke="#138483"></path><path d="M1457.3156467359513,964.1186975967139L1433.807177497074,1136.4263376686722L1577.485837340355,1068.5907492600381Z" fill="#087f7c" stroke="#087f7c"></path><path d="M1457.3156467359513,964.1186975967139L1577.485837340355,1068.5907492600381L1594.7205051407218,980.6416603457183Z" fill="#02817f" stroke="#02817f"></path><path d="M1594.7205051407218,980.6416603457183L1577.485837340355,1068.5907492600381L1753.9827531483024,1020.175533592701Z" fill="#007d79" stroke="#007d79"></path><path d="M1753.9827531483024,1020.175533592701L1577.485837340355,1068.5907492600381L1775.2521757688373,1131.0179361049086Z" fill="#007771" stroke="#007771"></path><path d="M1753.9827531483024,1020.175533592701L1775.2521757688373,1131.0179361049086L1883.4009719453752,1033.586330646649Z" fill="#00756d" stroke="#00756d"></path><path d="M1883.4009719453752,1033.586330646649L1775.2521757688373,1131.0179361049086L1931.562074907124,1127.6636524591595Z" fill="#007066" stroke="#007066"></path><path d="M1883.4009719453752,1033.586330646649L1931.562074907124,1127.6636524591595L1986.6868638060987,1095.7782774511725Z" fill="#006f64" stroke="#006f64"></path><path d="M1883.4009719453752,1033.586330646649L1986.6868638060987,1095.7782774511725L2040.3703505080193,941.7544131260365Z" fill="#007269" stroke="#007269"></path><path d="M2040.3703505080193,941.7544131260365L1986.6868638060987,1095.7782774511725L2211.063992064446,1065.8737982343882Z" fill="#006e63" stroke="#006e63"></path><path d="M2040.3703505080193,941.7544131260365L2211.063992064446,1065.8737982343882L2123.453569142148,928.5686651989818Z" fill="#007167" stroke="#007167"></path><path d="M2123.453569142148,928.5686651989818L2211.063992064446,1065.8737982343882L2277.5266568362713,970.8614118397236Z" fill="#006e62" stroke="#006e62"></path><path d="M2277.5266568362713,970.8614118397236L2211.063992064446,1065.8737982343882L2291.6630319412798,1179.7381618525833Z" fill="#006557" stroke="#006557"></path><path d="M-121.99415154755116,1105.415612384677L548.1114498898387,1145.8349511399865L170.71086689829826,1113.1960281170905Z" fill="#6ca0a1" stroke="#6ca0a1"></path><path d="M-121.99415154755116,1105.415612384677L170.71086689829826,1113.1960281170905L42.63592477887869,1077.4198556039482Z" fill="#75a6a6" stroke="#75a6a6"></path><path d="M170.71086689829826,1113.1960281170905L548.1114498898387,1145.8349511399865L427.3066700901836,1124.2982670105994Z" fill="#639a9e" stroke="#639a9e"></path><path d="M548.1114498898387,1145.8349511399865L1084.2418246809393,1176.5477898716927L813.331507416442,1147.6273599173874Z" fill="#498c91" stroke="#498c91"></path><path d="M548.1114498898387,1145.8349511399865L813.331507416442,1147.6273599173874L633.1086082197726,1122.2282918728888Z" fill="#569298" stroke="#569298"></path><path d="M813.331507416442,1147.6273599173874L1084.2418246809393,1176.5477898716927L919.6369480434805,1085.8779592160136Z" fill="#3d8a8d" stroke="#3d8a8d"></path><path d="M1084.2418246809393,1176.5477898716927L2291.6630319412798,1179.7381618525833L1300.797366751358,1164.5540891960263Z" fill="#01736c" stroke="#01736c"></path><path d="M1300.797366751358,1164.5540891960263L2291.6630319412798,1179.7381618525833L1775.2521757688373,1131.0179361049086Z" fill="#006d63" stroke="#006d63"></path><path d="M1300.797366751358,1164.5540891960263L1775.2521757688373,1131.0179361049086L1433.807177497074,1136.4263376686722Z" fill="#067872" stroke="#067872"></path><path d="M1433.807177497074,1136.4263376686722L1775.2521757688373,1131.0179361049086L1577.485837340355,1068.5907492600381Z" fill="#007771" stroke="#007771"></path><path d="M1775.2521757688373,1131.0179361049086L2291.6630319412798,1179.7381618525833L1931.562074907124,1127.6636524591595Z" fill="#00675b" stroke="#00675b"></path><path d="M1931.562074907124,1127.6636524591595L2291.6630319412798,1179.7381618525833L1986.6868638060987,1095.7782774511725Z" fill="#006659" stroke="#006659"></path><path d="M1986.6868638060987,1095.7782774511725L2291.6630319412798,1179.7381618525833L2211.063992064446,1065.8737982343882Z" fill="#006557" stroke="#006557"></path></g></svg>